<svg width="512" height="512" viewBox="0 0 512 512" fill="none" xmlns="http://www.w3.org/2000/svg">
<path d="M512 0L256 256L512 512H0V409.6H256L102.4 256L256 102.4H0V0H512Z" fill="#C1D683"/>
<path d="M512 0L256 256L0 0V512H102.4V409.6V256L256 409.6L409.6 256V409.6V512H512V0Z" fill="#90BE21"/>
<path d="M512 512H409.6V409.6L512 512Z" fill="#5FAE30"/>
<path d="M102.4 256L179.541 179.541L333.141 333.141L256 409.6L102.4 256Z" fill="#5FAE30"/>
<path d="M102.4 409.6H0V512H102.4V409.6Z" fill="#5FAE30"/>
<path d="M0 0V102.4H102.4L0 0Z" fill="#5FAE30"/>
</svg>
